<?xml version="1.0" encoding="UTF-8"?>
<svg id="Layer_1" xmlns="http://www.w3.org/2000/svg" version="1.1" xmlns:xlink="http://www.w3.org/1999/xlink" viewBox="0 0 512 512">
  <!-- Generator: Adobe Illustrator 30.1.0, SVG Export Plug-In . SVG Version: 2.1.1 Build 136)  -->
  <defs>
    <style>
      .st0 {
        fill: url(#linear-gradient2);
      }

      .st1 {
        fill: url(#linear-gradient1);
      }

      .st2 {
        fill: url(#linear-gradient4);
      }

      .st3 {
        fill: url(#linear-gradient3);
      }

      .st4 {
        fill: url(#linear-gradient);
      }
    </style>
    <linearGradient id="linear-gradient" x1="-82.92" y1="315.96" x2="501.03" y2="-21.19" gradientTransform="translate(0 2)" gradientUnits="userSpaceOnUse">
      <stop offset="0" stop-color="#155e75"/>
      <stop offset=".4" stop-color="#06b6d4"/>
      <stop offset="1" stop-color="#67e8f9"/>
    </linearGradient>
    <linearGradient id="linear-gradient1" x1="-12.59" y1="275.35" x2="487.81" y2="-13.58" gradientTransform="translate(0 2)" gradientUnits="userSpaceOnUse">
      <stop offset="0" stop-color="#0891b2"/>
      <stop offset=".3" stop-color="#22d3ee"/>
      <stop offset=".5" stop-color="#4fddf2"/>
      <stop offset=".7" stop-color="#86e9f7"/>
      <stop offset=".8" stop-color="#adf2fa"/>
      <stop offset=".9" stop-color="#c6f7fd"/>
      <stop offset="1" stop-color="#cffafe"/>
    </linearGradient>
    <linearGradient id="linear-gradient2" x1="126.44" y1="484.83" x2="619.74" y2="119.73" gradientTransform="translate(0 2)" gradientUnits="userSpaceOnUse">
      <stop offset="0" stop-color="#065f46"/>
      <stop offset=".4" stop-color="#10b981"/>
      <stop offset=".7" stop-color="#3fd09c"/>
      <stop offset="1" stop-color="#6ee7b7"/>
    </linearGradient>
    <linearGradient id="linear-gradient3" x1="146.37" y1="420.87" x2="580.8" y2="99.34" gradientTransform="translate(0 2)" gradientUnits="userSpaceOnUse">
      <stop offset="0" stop-color="#059669"/>
      <stop offset=".3" stop-color="#34d399"/>
      <stop offset=".4" stop-color="#46d7a1"/>
      <stop offset=".6" stop-color="#81e6be"/>
      <stop offset=".8" stop-color="#acf0d3"/>
      <stop offset=".9" stop-color="#c7f7e0"/>
      <stop offset="1" stop-color="#d1fae5"/>
    </linearGradient>
    <linearGradient id="linear-gradient4" x1="357.38" y1="407.86" x2="519.83" y2="287.62" gradientTransform="translate(0 2)" gradientUnits="userSpaceOnUse">
      <stop offset="0" stop-color="#059669"/>
      <stop offset=".4" stop-color="#34d399"/>
      <stop offset=".5" stop-color="#46d7a1"/>
      <stop offset=".6" stop-color="#81e6be"/>
      <stop offset=".8" stop-color="#acf0d3"/>
      <stop offset=".9" stop-color="#c7f7e0"/>
      <stop offset="1" stop-color="#d1fae5"/>
    </linearGradient>
  </defs>
  <polygon id="n-base" class="st4" points="457.41 122.28 39.47 363.58 39.47 264.75 286.21 122.28 256 104.85 39.47 229.85 39.47 131.01 147.75 68.49 256 6 364.24 68.49 457.41 122.28"/>
  <polygon id="n-highlight" class="st1" points="440.98 122.28 232.67 242.55 163.5 202.61 302.62 122.28 256 95.35 116.85 175.68 47.69 135.74 256 15.48 440.98 122.28"/>
  <path id="u-base" class="st0" d="M472.52,247.28l-246.75,142.44,30.22,17.43,216.52-125.01v98.85c-53.98,31.16-162.58,93.87-216.52,125.01-50.08-28.92-151.65-87.57-201.42-116.28l417.92-241.28v98.85h.03,0Z"/>
  <polygon id="u-highlight-1" class="st3" points="464.3 162.68 464.3 242.55 348.49 309.42 279.32 269.48 464.3 162.68"/>
  <polygon id="u-highlight-2" class="st2" points="395.14 336.34 464.3 296.39 464.3 376.29 395.14 336.34"/>
</svg>